<?xml version="1.0"?>
<svg xmlns="http://www.w3.org/2000/svg" xmlns:xlink="http://www.w3.org/1999/xlink" xmlns:svgjs="http://svgjs.com/svgjs" version="1.1" width="512" height="512" x="0" y="0" viewBox="0 0 24 24" style="enable-background:new 0 0 512 512" xml:space="preserve"><g><path xmlns="http://www.w3.org/2000/svg" d="M11.122,12.536a3,3,0,0,0-4.244,0l-6.84,6.84A4.991,4.991,0,0,0,5,24H19a4.969,4.969,0,0,0,2.753-.833Z" fill="#e60f0f" data-original="#000000"/><circle xmlns="http://www.w3.org/2000/svg" cx="18" cy="6" r="2" fill="#e60f0f" data-original="#000000"/><path xmlns="http://www.w3.org/2000/svg" d="M19,0H5A5.006,5.006,0,0,0,0,5V16.586l5.464-5.464a5,5,0,0,1,7.072,0L23.167,21.753A4.969,4.969,0,0,0,24,19V5A5.006,5.006,0,0,0,19,0ZM18,10a4,4,0,1,1,4-4A4,4,0,0,1,18,10Z" fill="#e60f0f" data-original="#000000"/></g></svg>
