<?xml version="1.0" encoding="utf-8"?>
<!-- Generator: Adobe Illustrator 23.0.1, SVG Export Plug-In . SVG Version: 6.00 Build 0)  -->
<!DOCTYPE svg PUBLIC "-//W3C//DTD SVG 1.1//EN" "http://www.w3.org/Graphics/SVG/1.1/DTD/svg11.dtd" [
	<!ENTITY ns_extend "http://ns.adobe.com/Extensibility/1.0/">
	<!ENTITY ns_ai "http://ns.adobe.com/AdobeIllustrator/10.0/">
	<!ENTITY ns_graphs "http://ns.adobe.com/Graphs/1.0/">
	<!ENTITY ns_vars "http://ns.adobe.com/Variables/1.0/">
	<!ENTITY ns_imrep "http://ns.adobe.com/ImageReplacement/1.0/">
	<!ENTITY ns_sfw "http://ns.adobe.com/SaveForWeb/1.0/">
	<!ENTITY ns_custom "http://ns.adobe.com/GenericCustomNamespace/1.0/">
	<!ENTITY ns_adobe_xpath "http://ns.adobe.com/XPath/1.0/">
]>
<svg version="1.1" xmlns:x="&ns_extend;" xmlns:i="&ns_ai;" xmlns:graph="&ns_graphs;" xmlns="http://www.w3.org/2000/svg" xmlns:xlink="http://www.w3.org/1999/xlink" x="0px" y="0px" viewBox="0 0 2000 1200" style="enable-background:new 0 0 2000 1200;" xml:space="preserve">
	<style type="text/css">
	.st0{fill-rule:evenodd;clip-rule:evenodd;fill:#282828;}
	.st1{display:none;}
	.st2{display:inline;fill:#1E1E1E;stroke:#000000;stroke-miterlimit:10;}
	.st3{fill-rule:evenodd;clip-rule:evenodd;fill:#222222;}
</style>
	<metadata>
		<sfw xmlns="&ns_sfw;">
			<slices></slices>
			<sliceSourceBounds bottomLeftOrigin="true" height="1501" width="2175.7" x="-138.5" y="-1338.5"></sliceSourceBounds>
		</sfw>
	</metadata>
	<g id="Шар_2">
		<rect x="-21" y="-32.1" class="st0" width="2058.2" height="1273.8" />
	</g>
	<g id="Шар_1">
		<g class="st1">
			<rect x="-138" y="-162" class="st2" width="2000" height="1500" />
		</g>
		<g>
			<g>
				<defs>
					<path opacity="1" id="el10" class="st3" d="M979.9,385.2c0-4.9-6.2-9.6-15.9-12.6c-0.9-0.3-1.4-1.2-1.2-2.1c2-9.4,0.7-16.7-3.8-19.1
				c-0.5-0.3-1-0.5-1.5-0.6c-1.1-0.3-2.2,0.5-2.2,1.7l0,0c0,0.8,0.5,1.5,1.3,1.7c0.2,0.1,0.4,0.1,0.6,0.2c2.3,1.2,3.3,6,2.5,12
				c-0.1,0.9-0.3,1.9-0.5,2.9s-1.1,1.6-2.1,1.4c-2.6-0.5-5.4-1-8.3-1.3c-0.5-0.1-0.9-0.3-1.2-0.7c-1.7-2.2-3.5-4.2-5.2-6
				c-0.7-0.7-0.6-2,0.2-2.6c4.2-3.5,8.2-5.5,11.3-6.1c0.8-0.1,1.4-0.9,1.4-1.7v-1.9l0,0c-4.4,0-10,2.7-15.7,7.5
				c-0.7,0.6-1.6,0.6-2.3,0c-4.9-4-9.6-6.6-13.6-7.3c-1.1-0.2-2.1,0.6-2.1,1.7l0,0c0,0.8,0.6,1.6,1.4,1.7c3,0.5,7,2.6,11.3,6
				c0.8,0.7,0.9,1.9,0.2,2.6c-1.8,1.8-3.5,3.8-5.2,6c-0.3,0.4-0.7,0.6-1.2,0.7c-2.9,0.3-5.7,0.7-8.3,1.3c-1,0.2-1.9-0.4-2.1-1.4
				s-0.4-1.9-0.5-2.8c-0.8-6.1,0.2-10.8,2.5-12c0.2-0.1,0.4-0.2,0.7-0.3c0.8-0.2,1.3-0.9,1.3-1.7v-1.9l0,0c-1.4,0-2.7,0.3-3.8,0.9
				c-4.5,2.4-5.7,9.8-3.7,19.1c0.2,0.9-0.3,1.8-1.2,2c-9.6,3.1-15.8,7.7-15.8,12.6c0,4.9,6.2,9.6,15.9,12.6c0.9,0.3,1.4,1.2,1.2,2.1
				c-2,9.4-0.7,16.7,3.8,19.1c1.1,0.6,2.4,0.9,3.8,0.9c4.4,0,10-2.7,15.7-7.5c0.7-0.6,1.6-0.6,2.3,0c5.8,4.8,11.4,7.5,15.7,7.5
				c1.4,0,2.7-0.3,3.8-0.9c4.5-2.4,5.7-9.8,3.7-19.1c-0.2-0.9,0.3-1.8,1.2-2C973.7,394.8,979.9,390.1,979.9,385.2L979.9,385.2z
				 M946.2,385.2c0-4-3.5-7.3-7.7-7.3c-4.3,0-7.7,3.2-7.7,7.3s3.5,7.3,7.7,7.3S946.2,389.2,946.2,385.2L946.2,385.2z M921.5,350.5
				L921.5,350.5L921.5,350.5L921.5,350.5z M957.9,374.6c-0.3,0.9-0.6,1.8-0.9,2.8c-0.5,1.4-2.4,1.6-3.2,0.3
				c-0.1-0.2-0.3-0.4-0.4-0.6c-0.1-0.1-0.2-0.3-0.2-0.4c-0.8-1.3,0.3-3,1.8-2.7C956,374.2,957,374.4,957.9,374.6L957.9,374.6z
				 M950.2,391.5c-1.2,1.9-2.4,3.7-3.6,5.4c-0.3,0.4-0.8,0.7-1.3,0.7c-2.2,0.2-4.5,0.3-6.8,0.3s-4.5-0.1-6.8-0.2
				c-0.5,0-1-0.3-1.3-0.7c-1.2-1.7-2.4-3.5-3.6-5.4c-1.1-1.8-2.2-3.7-3.1-5.5c-0.3-0.5-0.3-1.1,0-1.6c0.9-1.9,2-3.7,3.1-5.5
				c1.2-1.9,2.4-3.7,3.6-5.4c0.3-0.4,0.8-0.7,1.3-0.7c2.2-0.2,4.5-0.3,6.8-0.3s4.5,0.1,6.8,0.2c0.5,0,1,0.3,1.3,0.7
				c1.2,1.7,2.4,3.5,3.6,5.4c1.1,1.8,2.1,3.7,3.1,5.5c0.3,0.5,0.3,1.1,0,1.6C952.3,387.9,951.3,389.7,950.2,391.5L950.2,391.5z
				 M955.6,389.5c0.6,1.5,1.2,3,1.7,4.4c0.4,1-0.3,2.1-1.3,2.3c-0.3,0.1-0.7,0.1-1,0.2c-1.5,0.3-2.7-1.4-1.8-2.7
				c0.1-0.1,0.2-0.3,0.3-0.4C954.2,392,954.9,390.7,955.6,389.5L955.6,389.5z M938.5,406.4c-0.6-0.6-1.3-1.3-1.9-2
				c-1.1-1.1-0.3-3,1.3-3c0.2,0,0.4,0,0.6,0s0.5,0,0.7,0c1.6,0,2.4,1.9,1.3,3C939.8,405.1,939.1,405.8,938.5,406.4L938.5,406.4z
				 M925.9,397.1c-1.7-0.2-3.4-0.5-5-0.8c-1.1-0.2-1.7-1.3-1.3-2.3c0.1-0.3,0.2-0.6,0.3-0.9c0.5-1.4,2.4-1.6,3.2-0.3
				c0.1,0.2,0.3,0.4,0.4,0.6C924.3,394.6,925.1,395.8,925.9,397.1L925.9,397.1z M938.4,364c0.6,0.6,1.3,1.3,1.9,2
				c1.1,1.1,0.3,3-1.3,3c-0.2,0-0.4,0-0.6,0s-0.5,0-0.7,0c-1.6,0-2.4-1.9-1.3-3C937.1,365.3,937.8,364.6,938.4,364L938.4,364z
				 M925.9,373.3c-0.8,1.2-1.7,2.5-2.4,3.8c-0.1,0.2-0.3,0.4-0.4,0.6c-0.8,1.3-2.7,1.1-3.2-0.3c-0.1-0.3-0.2-0.6-0.3-0.9
				c-0.4-1,0.3-2.1,1.3-2.3C922.5,373.9,924.2,373.6,925.9,373.3L925.9,373.3z M910.6,393.2c-6-2.4-9.8-5.5-9.8-8s3.9-5.7,9.8-8
				c0.9-0.4,1.9-0.7,3-1.1c0.9-0.3,1.9,0.2,2.2,1.1c0.8,2.4,1.8,4.8,2.9,7.3c0.2,0.5,0.2,1,0,1.5c-1.1,2.5-2.1,4.9-2.9,7.2
				c-0.3,0.9-1.3,1.4-2.2,1.1C912.6,394,911.6,393.6,910.6,393.2L910.6,393.2z M919.7,415.9c-2.3-1.2-3.3-6-2.5-12
				c0.1-0.9,0.3-1.9,0.5-2.9s1.1-1.6,2.1-1.4c2.6,0.5,5.4,1,8.3,1.3c0.5,0.1,0.9,0.3,1.2,0.7c1.7,2.2,3.5,4.2,5.2,6
				c0.7,0.7,0.6,2-0.2,2.6c-4.9,4-9.5,6.2-12.7,6.2C920.9,416.4,920.2,416.2,919.7,415.9L919.7,415.9z M959.8,403.8
				c0.8,6.1-0.2,10.8-2.5,12c-0.5,0.3-1.2,0.4-1.9,0.4c-3.2,0-7.7-2.2-12.7-6.1c-0.8-0.7-0.9-1.9-0.2-2.6c1.8-1.8,3.5-3.8,5.2-6
				c0.3-0.4,0.7-0.6,1.2-0.7c2.9-0.3,5.7-0.7,8.3-1.3c1-0.2,1.9,0.4,2.1,1.4C959.5,402,959.7,402.9,959.8,403.8L959.8,403.8z
				 M966.3,393.2c-0.9,0.4-1.9,0.7-3,1.1c-0.9,0.3-1.9-0.2-2.2-1.1c-0.8-2.4-1.8-4.8-2.9-7.3c-0.2-0.5-0.2-1,0-1.5
				c1.1-2.5,2.1-4.9,2.9-7.2c0.3-0.9,1.3-1.4,2.3-1.1c1,0.3,2.1,0.7,3,1.1c6,2.4,9.8,5.5,9.8,8C976.1,387.7,972.3,390.9,966.3,393.2
				L966.3,393.2z">
						<animate attributeName="opacity" values="0;1;0" dur="4s" repeatCount="indefinite" />
					</path>
				</defs>
				<use xlink:href="#el10" transform="translate(250 300)">
					<animateTransform attributeName="transform" type="scale" begin="0s" dur="15s" values="1,1; 1.75,1.75" repeatCount="indefinite" />
					<animate attributeName="opacity" values="0;1;0" dur="3.75s" repeatCount="indefinite" />
				</use>
				<defs>
					<path opacity="1" id="el9" class="st3" d="M309.8,437.1c0-4.9-6.2-9.6-15.9-12.6c-0.9-0.3-1.4-1.2-1.2-2.1c2-9.4,0.7-16.7-3.8-19.1
				c-0.5-0.3-1-0.5-1.5-0.6c-1.1-0.3-2.2,0.5-2.2,1.7l0,0c0,0.8,0.5,1.5,1.3,1.7c0.2,0.1,0.4,0.1,0.6,0.2c2.3,1.2,3.3,6,2.5,12
				c-0.1,0.9-0.3,1.9-0.5,2.9s-1.1,1.6-2.1,1.4c-2.6-0.5-5.4-1-8.3-1.3c-0.5-0.1-0.9-0.3-1.2-0.7c-1.7-2.2-3.5-4.2-5.2-6
				c-0.7-0.7-0.6-2,0.2-2.6c4.2-3.5,8.2-5.5,11.3-6.1c0.8-0.1,1.4-0.9,1.4-1.7v-1.9l0,0c-4.4,0-10,2.7-15.7,7.5
				c-0.7,0.6-1.6,0.6-2.3,0c-4.9-4-9.6-6.6-13.6-7.3c-1.1-0.2-2.1,0.6-2.1,1.7l0,0c0,0.8,0.6,1.6,1.4,1.7c3,0.5,7,2.6,11.3,6
				c0.8,0.7,0.9,1.9,0.2,2.6c-1.8,1.8-3.5,3.8-5.2,6c-0.3,0.4-0.7,0.6-1.2,0.7c-2.9,0.3-5.7,0.7-8.3,1.3c-1,0.2-1.9-0.4-2.1-1.4
				s-0.4-1.9-0.5-2.8c-0.8-6.1,0.2-10.8,2.5-12c0.2-0.1,0.4-0.2,0.7-0.3c0.8-0.2,1.3-0.9,1.3-1.7v-1.9l0,0c-1.4,0-2.7,0.3-3.8,0.9
				c-4.5,2.4-5.7,9.8-3.7,19.1c0.2,0.9-0.3,1.8-1.2,2c-9.6,3.1-15.8,7.7-15.8,12.6c0,4.9,6.2,9.6,15.9,12.6c0.9,0.3,1.4,1.2,1.2,2.1
				c-2,9.4-0.7,16.7,3.8,19.1c1.1,0.6,2.4,0.9,3.8,0.9c4.4,0,10-2.7,15.7-7.5c0.7-0.6,1.6-0.6,2.3,0c5.8,4.8,11.4,7.5,15.7,7.5
				c1.4,0,2.7-0.3,3.8-0.9c4.5-2.4,5.7-9.8,3.7-19.1c-0.2-0.9,0.3-1.8,1.2-2C303.6,446.6,309.8,441.9,309.8,437.1L309.8,437.1z
				 M276,437.1c0-4-3.5-7.3-7.7-7.3c-4.3,0-7.7,3.2-7.7,7.3c0,4,3.5,7.3,7.7,7.3C272.6,444.3,276,441.1,276,437.1L276,437.1z
				 M251.4,402.4L251.4,402.4L251.4,402.4L251.4,402.4z M287.8,426.5c-0.3,0.9-0.6,1.8-0.9,2.8c-0.5,1.4-2.4,1.6-3.2,0.3
				c-0.1-0.2-0.3-0.4-0.4-0.6c-0.1-0.1-0.2-0.3-0.2-0.4c-0.8-1.3,0.3-3,1.8-2.7C285.8,426,286.8,426.2,287.8,426.5L287.8,426.5z
				 M280,443.4c-1.2,1.9-2.4,3.7-3.6,5.4c-0.3,0.4-0.8,0.7-1.3,0.7c-2.2,0.2-4.5,0.3-6.8,0.3s-4.5-0.1-6.8-0.2c-0.5,0-1-0.3-1.3-0.7
				c-1.2-1.7-2.4-3.5-3.6-5.4c-1.1-1.8-2.2-3.7-3.1-5.5c-0.3-0.5-0.3-1.1,0-1.6c0.9-1.9,2-3.7,3.1-5.5c1.2-1.9,2.4-3.7,3.6-5.4
				c0.3-0.4,0.8-0.7,1.3-0.7c2.2-0.2,4.5-0.3,6.8-0.3s4.5,0.1,6.8,0.2c0.5,0,1,0.3,1.3,0.7c1.2,1.7,2.4,3.5,3.6,5.4
				c1.1,1.8,2.1,3.7,3.1,5.5c0.3,0.5,0.3,1.1,0,1.6C282.1,439.7,281.1,441.6,280,443.4L280,443.4z M285.5,441.3
				c0.6,1.5,1.2,3,1.7,4.4c0.4,1-0.3,2.1-1.3,2.3c-0.3,0.1-0.7,0.1-1,0.2c-1.5,0.3-2.7-1.4-1.8-2.7c0.1-0.1,0.2-0.3,0.3-0.4
				C284.1,443.9,284.8,442.6,285.5,441.3L285.5,441.3z M268.3,458.3c-0.6-0.6-1.3-1.3-1.9-2c-1.1-1.1-0.3-3,1.3-3c0.2,0,0.4,0,0.6,0
				s0.5,0,0.7,0c1.6,0,2.4,1.9,1.3,3C269.6,457,269,457.6,268.3,458.3L268.3,458.3z M255.8,448.9c-1.7-0.2-3.4-0.5-5-0.8
				c-1.1-0.2-1.7-1.3-1.3-2.3c0.1-0.3,0.2-0.6,0.3-0.9c0.5-1.4,2.4-1.6,3.2-0.3c0.1,0.2,0.3,0.4,0.4,0.6
				C254.1,446.5,254.9,447.7,255.8,448.9L255.8,448.9z M268.3,415.8c0.6,0.6,1.3,1.3,1.9,2c1.1,1.1,0.3,3-1.3,3c-0.2,0-0.4,0-0.6,0
				s-0.5,0-0.7,0c-1.6,0-2.4-1.9-1.3-3C267,417.1,267.6,416.5,268.3,415.8L268.3,415.8z M255.8,425.2c-0.8,1.2-1.7,2.5-2.4,3.8
				c-0.1,0.2-0.3,0.4-0.4,0.6c-0.8,1.3-2.7,1.1-3.2-0.3c-0.1-0.3-0.2-0.6-0.3-0.9c-0.4-1,0.3-2.1,1.3-2.3
				C252.4,425.7,254,425.4,255.8,425.2L255.8,425.2z M240.5,445.1c-6-2.4-9.8-5.5-9.8-8s3.9-5.7,9.8-8c0.9-0.4,1.9-0.7,3-1.1
				c0.9-0.3,1.9,0.2,2.2,1.1c0.8,2.4,1.8,4.8,2.9,7.3c0.2,0.5,0.2,1,0,1.5c-1.1,2.5-2.1,4.9-2.9,7.2c-0.3,0.9-1.3,1.4-2.2,1.1
				C242.4,445.8,241.4,445.5,240.5,445.1L240.5,445.1z M249.6,467.8c-2.3-1.2-3.3-6-2.5-12c0.1-0.9,0.3-1.9,0.5-2.9s1.1-1.6,2.1-1.4
				c2.6,0.5,5.4,1,8.3,1.3c0.5,0.1,0.9,0.3,1.2,0.7c1.7,2.2,3.5,4.2,5.2,6c0.7,0.7,0.6,2-0.2,2.6c-4.9,4-9.5,6.2-12.7,6.2
				C250.7,468.2,250.1,468.1,249.6,467.8L249.6,467.8z M289.6,455.7c0.8,6.1-0.2,10.8-2.5,12c-0.5,0.3-1.2,0.4-1.9,0.4
				c-3.2,0-7.7-2.2-12.7-6.1c-0.8-0.7-0.9-1.9-0.2-2.6c1.8-1.8,3.5-3.8,5.2-6c0.3-0.4,0.7-0.6,1.2-0.7c2.9-0.3,5.7-0.7,8.3-1.3
				c1-0.2,1.9,0.4,2.1,1.4C289.3,453.8,289.5,454.8,289.6,455.7L289.6,455.7z M296.1,445.1c-0.9,0.4-1.9,0.7-3,1.1
				c-0.9,0.3-1.9-0.2-2.2-1.1c-0.8-2.4-1.8-4.8-2.9-7.3c-0.2-0.5-0.2-1,0-1.5c1.1-2.5,2.1-4.9,2.9-7.2c0.3-0.9,1.3-1.4,2.3-1.1
				c1,0.3,2.1,0.7,3,1.1c6,2.4,9.8,5.5,9.8,8C306,439.5,302.1,442.7,296.1,445.1L296.1,445.1z">
						<animate attributeName="opacity" values="0;1;0" dur="3s" repeatCount="indefinite" />
					</path>
				</defs>
				<use xlink:href="#el9" transform="translate(250 300)">
					<animateTransform attributeName="transform" type="scale" begin="0s" dur="20s" values="1,1; 2,2" repeatCount="indefinite" />
					<animate attributeName="opacity" values="0;1;0" dur="5s" repeatCount="indefinite" />
				</use>
				<defs>
					<path opacity="1" id="el8" class="st3" d="M709,39.7c0-4.9-6.2-9.6-15.9-12.6c-0.9-0.3-1.4-1.2-1.2-2.1c2-9.4,0.7-16.7-3.8-19.1
				c-0.5-0.3-1-0.5-1.5-0.6c-1.1-0.3-2.2,0.5-2.2,1.7l0,0c0,0.8,0.5,1.5,1.3,1.7c0.2,0.1,0.4,0.1,0.6,0.2c2.3,1.2,3.3,6,2.5,12
				c-0.1,0.9-0.3,1.9-0.5,2.9s-1.1,1.6-2.1,1.4c-2.6-0.5-5.4-1-8.3-1.3c-0.5-0.1-0.9-0.3-1.2-0.7c-1.7-2.2-3.5-4.2-5.2-6
				c-0.7-0.7-0.6-2,0.2-2.6c4.2-3.5,8.2-5.5,11.3-6.1c0.8-0.1,1.4-0.9,1.4-1.7V5l0,0c-4.4,0-10,2.7-15.7,7.5c-0.7,0.6-1.6,0.6-2.3,0
				c-4.9-4-9.6-6.6-13.6-7.3c-1.1-0.2-2.1,0.6-2.1,1.7l0,0c0,0.8,0.6,1.6,1.4,1.7c3,0.5,7,2.6,11.3,6c0.8,0.7,0.9,1.9,0.2,2.6
				c-1.8,1.8-3.5,3.8-5.2,6c-0.3,0.4-0.7,0.6-1.2,0.7c-2.9,0.3-5.7,0.7-8.3,1.3c-1,0.2-1.9-0.4-2.1-1.4c-0.2-1-0.4-1.9-0.5-2.8
				c-0.8-6.1,0.2-10.8,2.5-12c0.2-0.1,0.4-0.2,0.7-0.3c0.8-0.2,1.3-0.9,1.3-1.7V5.1l0,0c-1.4,0-2.7,0.3-3.8,0.9
				c-4.5,2.4-5.7,9.8-3.7,19.1c0.2,0.9-0.3,1.8-1.2,2c-9.6,3.1-15.8,7.7-15.8,12.6c0,4.9,6.2,9.6,15.9,12.6c0.9,0.3,1.4,1.2,1.2,2.1
				c-2,9.4-0.7,16.7,3.8,19.1c1.1,0.6,2.4,0.9,3.8,0.9c4.4,0,10-2.7,15.7-7.5c0.7-0.6,1.6-0.6,2.3,0c5.8,4.8,11.4,7.5,15.7,7.5
				c1.4,0,2.7-0.3,3.8-0.9c4.5-2.4,5.7-9.8,3.7-19.1c-0.2-0.9,0.3-1.8,1.2-2C702.8,49.3,709,44.6,709,39.7L709,39.7z M675.2,39.7
				c0-4-3.5-7.3-7.7-7.3c-4.3,0-7.7,3.2-7.7,7.3s3.5,7.3,7.7,7.3C671.8,47,675.2,43.7,675.2,39.7L675.2,39.7z M650.6,5.1L650.6,5.1
				L650.6,5.1L650.6,5.1z M687,29.1c-0.3,0.9-0.6,1.8-0.9,2.8c-0.5,1.4-2.4,1.6-3.2,0.3c-0.1-0.2-0.3-0.4-0.4-0.6
				c-0.1-0.1-0.2-0.3-0.2-0.4c-0.8-1.3,0.3-3,1.8-2.7C685.1,28.7,686,28.9,687,29.1L687,29.1z M679.3,46c-1.2,1.9-2.4,3.7-3.6,5.4
				c-0.3,0.4-0.8,0.7-1.3,0.7c-2.2,0.2-4.5,0.3-6.8,0.3s-4.5-0.1-6.8-0.2c-0.5,0-1-0.3-1.3-0.7c-1.2-1.7-2.4-3.5-3.6-5.4
				c-1.1-1.8-2.2-3.7-3.1-5.5c-0.3-0.5-0.3-1.1,0-1.6c0.9-1.9,2-3.7,3.1-5.5c1.2-1.9,2.4-3.7,3.6-5.4c0.3-0.4,0.8-0.7,1.3-0.7
				c2.2-0.2,4.5-0.3,6.8-0.3s4.5,0.1,6.8,0.2c0.5,0,1,0.3,1.3,0.7c1.2,1.7,2.4,3.5,3.6,5.4c1.1,1.8,2.1,3.7,3.1,5.5
				c0.3,0.5,0.3,1.1,0,1.6C681.4,42.4,680.4,44.2,679.3,46L679.3,46z M684.7,44c0.6,1.5,1.2,3,1.7,4.4c0.4,1-0.3,2.1-1.3,2.3
				c-0.3,0.1-0.7,0.1-1,0.2c-1.5,0.3-2.7-1.4-1.8-2.7c0.1-0.1,0.2-0.3,0.3-0.4C683.3,46.5,684,45.2,684.7,44L684.7,44z M667.6,60.9
				c-0.6-0.6-1.3-1.3-1.9-2c-1.1-1.1-0.3-3,1.3-3c0.2,0,0.4,0,0.6,0c0.2,0,0.5,0,0.7,0c1.6,0,2.4,1.9,1.3,3
				C668.9,59.6,668.2,60.3,667.6,60.9L667.6,60.9z M655,51.6c-1.7-0.2-3.4-0.5-5-0.8c-1.1-0.2-1.7-1.3-1.3-2.3
				c0.1-0.3,0.2-0.6,0.3-0.9c0.5-1.4,2.4-1.6,3.2-0.3c0.1,0.2,0.3,0.4,0.4,0.6C653.4,49.1,654.2,50.4,655,51.6L655,51.6z
				 M667.5,18.5c0.6,0.6,1.3,1.3,1.9,2c1.1,1.1,0.3,3-1.3,3c-0.2,0-0.4,0-0.6,0c-0.2,0-0.5,0-0.7,0c-1.6,0-2.4-1.9-1.3-3
				C666.2,19.8,666.9,19.1,667.5,18.5L667.5,18.5z M655,27.9c-0.8,1.2-1.7,2.5-2.4,3.8c-0.1,0.2-0.3,0.4-0.4,0.6
				c-0.8,1.3-2.7,1.1-3.2-0.3c-0.1-0.3-0.2-0.6-0.3-0.9c-0.4-1,0.3-2.1,1.3-2.3C651.6,28.4,653.3,28.1,655,27.9L655,27.9z
				 M639.7,47.8c-6-2.4-9.8-5.5-9.8-8s3.9-5.7,9.8-8c0.9-0.4,1.9-0.7,3-1.1c0.9-0.3,1.9,0.2,2.2,1.1c0.8,2.4,1.8,4.8,2.9,7.3
				c0.2,0.5,0.2,1,0,1.5c-1.1,2.5-2.1,4.9-2.9,7.2c-0.3,0.9-1.3,1.4-2.2,1.1C641.7,48.5,640.7,48.1,639.7,47.8L639.7,47.8z
				 M648.8,70.5c-2.3-1.2-3.3-6-2.5-12c0.1-0.9,0.3-1.9,0.5-2.9s1.1-1.6,2.1-1.4c2.6,0.5,5.4,1,8.3,1.3c0.5,0.1,0.9,0.3,1.2,0.7
				c1.7,2.2,3.5,4.2,5.2,6c0.7,0.7,0.6,2-0.2,2.6c-4.9,4-9.5,6.2-12.7,6.2C649.9,70.9,649.3,70.7,648.8,70.5L648.8,70.5z
				 M688.9,58.4c0.8,6.1-0.2,10.8-2.5,12c-0.5,0.3-1.2,0.4-1.9,0.4c-3.2,0-7.7-2.2-12.7-6.1c-0.8-0.7-0.9-1.9-0.2-2.6
				c1.8-1.8,3.5-3.8,5.2-6c0.3-0.4,0.7-0.6,1.2-0.7c2.9-0.3,5.7-0.7,8.3-1.3c1-0.2,1.9,0.4,2.1,1.4
				C688.6,56.5,688.7,57.4,688.9,58.4L688.9,58.4z M695.4,47.8c-0.9,0.4-1.9,0.7-3,1.1c-0.9,0.3-1.9-0.2-2.2-1.1
				c-0.8-2.4-1.8-4.8-2.9-7.3c-0.2-0.5-0.2-1,0-1.5c1.1-2.5,2.1-4.9,2.9-7.2c0.3-0.9,1.3-1.4,2.3-1.1c1,0.3,2.1,0.7,3,1.1
				c6,2.4,9.8,5.5,9.8,8C705.2,42.2,701.4,45.4,695.4,47.8L695.4,47.8z">
						<animate attributeName="opacity" values="0;1;0" dur="5s" repeatCount="indefinite" />
					</path>
				</defs>
				<use xlink:href="#el8" transform="translate(250 300)">
					<animateTransform attributeName="transform" type="scale" begin="0s" dur="9s" values="1,1; 2.5,2.5" repeatCount="indefinite" />
					<animate attributeName="opacity" values="0;1;0" dur="4.5s" repeatCount="indefinite" />
				</use>
				<defs>
					<path opacity="1" id="el7" class="st3" d="M7.4,162.8c0-4.9-6.2-9.6-15.9-12.6c-0.9-0.3-1.4-1.2-1.2-2.1c2-9.4,0.7-16.7-3.8-19.1
				c-0.5-0.3-1-0.5-1.5-0.6c-1.1-0.3-2.2,0.5-2.2,1.7l0,0c0,0.8,0.5,1.5,1.3,1.7c0.2,0.1,0.4,0.1,0.6,0.2c2.3,1.2,3.3,6,2.5,12
				c-0.1,0.9-0.3,1.9-0.5,2.9s-1.1,1.6-2.1,1.4c-2.6-0.5-5.4-1-8.3-1.3c-0.5-0.1-0.9-0.3-1.2-0.7c-1.7-2.2-3.5-4.2-5.2-6
				c-0.7-0.7-0.6-2,0.2-2.6c4.2-3.5,8.2-5.5,11.3-6.1c0.8-0.1,1.4-0.9,1.4-1.7V128l0,0c-4.4,0-10,2.7-15.7,7.5
				c-0.7,0.6-1.6,0.6-2.3,0c-4.9-4-9.6-6.6-13.6-7.3c-1.1-0.2-2.1,0.6-2.1,1.7l0,0c0,0.8,0.6,1.6,1.4,1.7c3,0.5,7,2.6,11.3,6
				c0.8,0.7,0.9,1.9,0.2,2.6c-1.8,1.8-3.5,3.8-5.2,6c-0.3,0.4-0.7,0.6-1.2,0.7c-2.9,0.3-5.7,0.7-8.3,1.3c-1,0.2-1.9-0.4-2.1-1.4
				s-0.4-1.9-0.5-2.8c-0.8-6.1,0.2-10.8,2.5-12c0.2-0.1,0.4-0.2,0.7-0.3c0.8-0.2,1.3-0.9,1.3-1.7v-1.9l0,0c-1.4,0-2.7,0.3-3.8,0.9
				c-4.5,2.4-5.7,9.8-3.7,19.1c0.2,0.9-0.3,1.8-1.2,2c-9.6,3.1-15.8,7.7-15.8,12.6s6.2,9.6,15.9,12.6c0.9,0.3,1.4,1.2,1.2,2.1
				c-2,9.4-0.7,16.7,3.8,19.1c1.1,0.6,2.4,0.9,3.8,0.9c4.4,0,10-2.7,15.7-7.5c0.7-0.6,1.6-0.6,2.3,0c5.8,4.8,11.4,7.5,15.7,7.5
				c1.4,0,2.7-0.3,3.8-0.9c4.5-2.4,5.7-9.8,3.7-19.1c-0.2-0.9,0.3-1.8,1.2-2C1.3,172.3,7.4,167.6,7.4,162.8L7.4,162.8z M-26.3,162.8
				c0-4-3.5-7.3-7.7-7.3c-4.3,0-7.7,3.2-7.7,7.3c0,4,3.5,7.3,7.7,7.3C-29.8,170-26.3,166.8-26.3,162.8L-26.3,162.8z M-50.9,128.1
				L-50.9,128.1L-50.9,128.1L-50.9,128.1z M-14.6,152.1c-0.3,0.9-0.6,1.8-0.9,2.8c-0.5,1.4-2.4,1.6-3.2,0.3
				c-0.1-0.2-0.3-0.4-0.4-0.6c-0.1-0.1-0.2-0.3-0.2-0.4c-0.8-1.3,0.3-3,1.8-2.7C-16.5,151.7-15.5,151.9-14.6,152.1L-14.6,152.1z
				 M-22.3,169.1c-1.2,1.9-2.4,3.7-3.6,5.4c-0.3,0.4-0.8,0.7-1.3,0.7c-2.2,0.2-4.5,0.3-6.8,0.3s-4.5-0.1-6.8-0.2
				c-0.5,0-1-0.3-1.3-0.7c-1.2-1.7-2.4-3.5-3.6-5.4c-1.1-1.8-2.2-3.7-3.1-5.5c-0.3-0.5-0.3-1.1,0-1.6c0.9-1.9,2-3.7,3.1-5.5
				c1.2-1.9,2.4-3.7,3.6-5.4c0.3-0.4,0.8-0.7,1.3-0.7c2.2-0.2,4.5-0.3,6.8-0.3s4.5,0.1,6.8,0.2c0.5,0,1,0.3,1.3,0.7
				c1.2,1.7,2.4,3.5,3.6,5.4c1.1,1.8,2.1,3.7,3.1,5.5c0.3,0.5,0.3,1.1,0,1.6C-20.2,165.4-21.2,167.3-22.3,169.1L-22.3,169.1z
				 M-16.8,167c0.6,1.5,1.2,3,1.7,4.4c0.4,1-0.3,2.1-1.3,2.3c-0.3,0.1-0.7,0.1-1,0.2c-1.5,0.3-2.7-1.4-1.8-2.7
				c0.1-0.1,0.2-0.3,0.3-0.4C-18.3,169.6-17.5,168.3-16.8,167L-16.8,167z M-34,184c-0.6-0.6-1.3-1.3-1.9-2c-1.1-1.1-0.3-3,1.3-3
				c0.2,0,0.4,0,0.6,0s0.5,0,0.7,0c1.6,0,2.4,1.9,1.3,3C-32.7,182.7-33.3,183.3-34,184L-34,184z M-46.5,174.6
				c-1.7-0.2-3.4-0.5-5-0.8c-1.1-0.2-1.7-1.3-1.3-2.3c0.1-0.3,0.2-0.6,0.3-0.9c0.5-1.4,2.4-1.6,3.2-0.3c0.1,0.2,0.3,0.4,0.4,0.6
				C-48.2,172.2-47.4,173.4-46.5,174.6L-46.5,174.6z M-34.1,141.5c0.6,0.6,1.3,1.3,1.9,2c1.1,1.1,0.3,3-1.3,3c-0.2,0-0.4,0-0.6,0
				s-0.5,0-0.7,0c-1.6,0-2.4-1.9-1.3-3C-35.4,142.8-34.7,142.2-34.1,141.5L-34.1,141.5z M-46.6,150.9c-0.8,1.2-1.7,2.5-2.4,3.8
				c-0.1,0.2-0.3,0.4-0.4,0.6c-0.8,1.3-2.7,1.1-3.2-0.3c-0.1-0.3-0.2-0.6-0.3-0.9c-0.4-1,0.3-2.1,1.3-2.3
				C-49.9,151.4-48.3,151.1-46.6,150.9L-46.6,150.9z M-61.9,170.8c-6-2.4-9.8-5.5-9.8-8s3.9-5.7,9.8-8c0.9-0.4,1.9-0.7,3-1.1
				c0.9-0.3,1.9,0.2,2.2,1.1c0.8,2.4,1.8,4.8,2.9,7.3c0.2,0.5,0.2,1,0,1.5c-1.1,2.5-2.1,4.9-2.9,7.2c-0.3,0.9-1.3,1.4-2.2,1.1
				C-59.9,171.5-60.9,171.2-61.9,170.8L-61.9,170.8z M-52.8,193.5c-2.3-1.2-3.3-6-2.5-12c0.1-0.9,0.3-1.9,0.5-2.9s1.1-1.6,2.1-1.4
				c2.6,0.5,5.4,1,8.3,1.3c0.5,0.1,0.9,0.3,1.2,0.7c1.7,2.2,3.5,4.2,5.2,6c0.7,0.7,0.6,2-0.2,2.6c-4.9,4-9.5,6.2-12.7,6.2
				C-51.6,193.9-52.3,193.8-52.8,193.5L-52.8,193.5z M-12.7,181.4c0.8,6.1-0.2,10.8-2.5,12c-0.5,0.3-1.2,0.4-1.9,0.4
				c-3.2,0-7.7-2.2-12.7-6.1c-0.8-0.7-0.9-1.9-0.2-2.6c1.8-1.8,3.5-3.8,5.2-6c0.3-0.4,0.7-0.6,1.2-0.7c2.9-0.3,5.7-0.7,8.3-1.3
				c1-0.2,1.9,0.4,2.1,1.4C-13,179.5-12.8,180.5-12.7,181.4L-12.7,181.4z M-6.2,170.8c-0.9,0.4-1.9,0.7-3,1.1
				c-0.9,0.3-1.9-0.2-2.2-1.1c-0.8-2.4-1.8-4.8-2.9-7.3c-0.2-0.5-0.2-1,0-1.5c1.1-2.5,2.1-4.9,2.9-7.2c0.3-0.9,1.3-1.4,2.3-1.1
				s2.1,0.7,3,1.1c6,2.4,9.8,5.5,9.8,8C3.7,165.2-0.2,168.4-6.2,170.8L-6.2,170.8z">
						<animate attributeName="opacity" values="0;1;0" dur="4s" repeatCount="indefinite" />
					</path>
				</defs>
				<use xlink:href="#el7" transform="translate(250 300)">
					<animateTransform attributeName="transform" type="scale" begin="0s" dur="16s" values="1,1; 2,2" repeatCount="indefinite" />
					<animate attributeName="opacity" values="0;1;0" dur="3s" repeatCount="indefinite" />
				</use>
				<defs>
					<path opacity="1" id="el6" class="st3" d="M1677.7,458.3c0-4.9-6.2-9.6-15.9-12.6c-0.9-0.3-1.4-1.2-1.2-2.1c2-9.4,0.7-16.7-3.8-19.1
				c-0.5-0.3-1-0.5-1.5-0.6c-1.1-0.3-2.2,0.5-2.2,1.7l0,0c0,0.8,0.5,1.5,1.3,1.7c0.2,0.1,0.4,0.1,0.6,0.2c2.3,1.2,3.3,6,2.5,12
				c-0.1,0.9-0.3,1.9-0.5,2.9s-1.1,1.6-2.1,1.4c-2.6-0.5-5.4-1-8.3-1.3c-0.5-0.1-0.9-0.3-1.2-0.7c-1.7-2.2-3.5-4.2-5.2-6
				c-0.7-0.7-0.6-2,0.2-2.6c4.2-3.5,8.2-5.5,11.3-6.1c0.8-0.1,1.4-0.9,1.4-1.7v-1.9l0,0c-4.4,0-10,2.7-15.7,7.5
				c-0.7,0.6-1.6,0.6-2.3,0c-4.9-4-9.6-6.6-13.6-7.3c-1.1-0.2-2.1,0.6-2.1,1.7l0,0c0,0.8,0.6,1.6,1.4,1.7c3,0.5,7,2.6,11.3,6
				c0.8,0.7,0.9,1.9,0.2,2.6c-1.8,1.8-3.5,3.8-5.2,6c-0.3,0.4-0.7,0.6-1.2,0.7c-2.9,0.3-5.7,0.7-8.3,1.3c-1,0.2-1.9-0.4-2.1-1.4
				s-0.4-1.9-0.5-2.8c-0.8-6.1,0.2-10.8,2.5-12c0.2-0.1,0.4-0.2,0.7-0.3c0.8-0.2,1.3-0.9,1.3-1.7v-1.9l0,0c-1.4,0-2.7,0.3-3.8,0.9
				c-4.5,2.4-5.7,9.8-3.7,19.1c0.2,0.9-0.3,1.8-1.2,2c-9.6,3.1-15.8,7.7-15.8,12.6c0,4.9,6.2,9.6,15.9,12.6c0.9,0.3,1.4,1.2,1.2,2.1
				c-2,9.4-0.7,16.7,3.8,19.1c1.1,0.6,2.4,0.9,3.8,0.9c4.4,0,10-2.7,15.7-7.5c0.7-0.6,1.6-0.6,2.3,0c5.8,4.8,11.4,7.5,15.7,7.5
				c1.4,0,2.7-0.3,3.8-0.9c4.5-2.4,5.7-9.8,3.7-19.1c-0.2-0.9,0.3-1.8,1.2-2C1671.5,467.8,1677.7,463.2,1677.7,458.3L1677.7,458.3z
				 M1644,458.3c0-4-3.5-7.3-7.7-7.3c-4.3,0-7.7,3.2-7.7,7.3s3.5,7.3,7.7,7.3C1640.5,465.5,1644,462.3,1644,458.3L1644,458.3z
				 M1619.3,423.6L1619.3,423.6L1619.3,423.6L1619.3,423.6z M1655.7,447.7c-0.3,0.9-0.6,1.8-0.9,2.8c-0.5,1.4-2.4,1.6-3.2,0.3
				c-0.1-0.2-0.3-0.4-0.4-0.6c-0.1-0.1-0.2-0.3-0.2-0.4c-0.8-1.3,0.3-3,1.8-2.7C1653.8,447.2,1654.8,447.4,1655.7,447.7
				L1655.7,447.7z M1648,464.6c-1.2,1.9-2.4,3.7-3.6,5.4c-0.3,0.4-0.8,0.7-1.3,0.7c-2.2,0.2-4.5,0.3-6.8,0.3s-4.5-0.1-6.8-0.2
				c-0.5,0-1-0.3-1.3-0.7c-1.2-1.7-2.4-3.5-3.6-5.4c-1.1-1.8-2.2-3.7-3.1-5.5c-0.3-0.5-0.3-1.1,0-1.6c0.9-1.9,2-3.7,3.1-5.5
				c1.2-1.9,2.4-3.7,3.6-5.4c0.3-0.4,0.8-0.7,1.3-0.7c2.2-0.2,4.5-0.3,6.8-0.3s4.5,0.1,6.8,0.2c0.5,0,1,0.3,1.3,0.7
				c1.2,1.7,2.4,3.5,3.6,5.4c1.1,1.8,2.1,3.7,3.1,5.5c0.3,0.5,0.3,1.1,0,1.6C1650.1,460.9,1649.1,462.8,1648,464.6L1648,464.6z
				 M1653.4,462.5c0.6,1.5,1.2,3,1.7,4.4c0.4,1-0.3,2.1-1.3,2.3c-0.3,0.1-0.7,0.1-1,0.2c-1.5,0.3-2.7-1.4-1.8-2.7
				c0.1-0.1,0.2-0.3,0.3-0.4C1652,465.1,1652.7,463.8,1653.4,462.5L1653.4,462.5z M1636.3,479.5c-0.6-0.6-1.3-1.3-1.9-2
				c-1.1-1.1-0.3-3,1.3-3c0.2,0,0.4,0,0.6,0s0.5,0,0.7,0c1.6,0,2.4,1.9,1.3,3C1637.6,478.2,1636.9,478.8,1636.3,479.5L1636.3,479.5z
				 M1623.7,470.1c-1.7-0.2-3.4-0.5-5-0.8c-1.1-0.2-1.7-1.3-1.3-2.3c0.1-0.3,0.2-0.6,0.3-0.9c0.5-1.4,2.4-1.6,3.2-0.3
				c0.1,0.2,0.3,0.4,0.4,0.6C1622.1,467.7,1622.9,468.9,1623.7,470.1L1623.7,470.1z M1636.2,437c0.6,0.6,1.3,1.3,1.9,2
				c1.1,1.1,0.3,3-1.3,3c-0.2,0-0.4,0-0.6,0s-0.5,0-0.7,0c-1.6,0-2.4-1.9-1.3-3C1634.9,438.3,1635.6,437.7,1636.2,437L1636.2,437z
				 M1623.7,446.4c-0.8,1.2-1.7,2.5-2.4,3.8c-0.1,0.2-0.3,0.4-0.4,0.6c-0.8,1.3-2.7,1.1-3.2-0.3c-0.1-0.3-0.2-0.6-0.3-0.9
				c-0.4-1,0.3-2.1,1.3-2.3C1620.3,446.9,1622,446.6,1623.7,446.4L1623.7,446.4z M1608.4,466.3c-6-2.4-9.8-5.5-9.8-8s3.9-5.7,9.8-8
				c0.9-0.4,1.9-0.7,3-1.1c0.9-0.3,1.9,0.2,2.2,1.1c0.8,2.4,1.8,4.8,2.9,7.3c0.2,0.5,0.2,1,0,1.5c-1.1,2.5-2.1,4.9-2.9,7.2
				c-0.3,0.9-1.3,1.4-2.2,1.1C1610.4,467.1,1609.4,466.7,1608.4,466.3L1608.4,466.3z M1617.5,489c-2.3-1.2-3.3-6-2.5-12
				c0.1-0.9,0.3-1.9,0.5-2.9s1.1-1.6,2.1-1.4c2.6,0.5,5.4,1,8.3,1.3c0.5,0.1,0.9,0.3,1.2,0.7c1.7,2.2,3.5,4.2,5.2,6
				c0.7,0.7,0.6,2-0.2,2.6c-4.9,4-9.5,6.2-12.7,6.2C1618.7,489.4,1618,489.3,1617.5,489L1617.5,489z M1657.6,476.9
				c0.8,6.1-0.2,10.8-2.5,12c-0.5,0.3-1.2,0.4-1.9,0.4c-3.2,0-7.7-2.2-12.7-6.1c-0.8-0.7-0.9-1.9-0.2-2.6c1.8-1.8,3.5-3.8,5.2-6
				c0.3-0.4,0.7-0.6,1.2-0.7c2.9-0.3,5.7-0.7,8.3-1.3c1-0.2,1.9,0.4,2.1,1.4C1657.3,475,1657.5,476,1657.6,476.9L1657.6,476.9z
				 M1664.1,466.3c-0.9,0.4-1.9,0.7-3,1.1c-0.9,0.3-1.9-0.2-2.2-1.1c-0.8-2.4-1.8-4.8-2.9-7.3c-0.2-0.5-0.2-1,0-1.5
				c1.1-2.5,2.1-4.9,2.9-7.2c0.3-0.9,1.3-1.4,2.3-1.1c1,0.3,2.1,0.7,3,1.1c6,2.4,9.8,5.5,9.8,8
				C1673.9,460.8,1670.1,463.9,1664.1,466.3L1664.1,466.3z">
						<animate attributeName="opacity" values="0;1;0" dur="5s" repeatCount="indefinite" />
					</path>
				</defs>
				<use xlink:href="#el6" transform="translate(250 300)">
					<animateTransform attributeName="transform" type="scale" begin="0s" dur="10s" values="1,1; 2.10,2.10" repeatCount="indefinite" />
					<animate attributeName="opacity" values="0;1;0" dur="4.25s" repeatCount="indefinite" />
				</use>
				<defs>
					<path opacity="1" id="el5" class="st3" d="M1172,184c0-4.9-6.2-9.6-15.9-12.6c-0.9-0.3-1.4-1.2-1.2-2.1c2-9.4,0.7-16.7-3.8-19.1
				c-0.5-0.3-1-0.5-1.5-0.6c-1.1-0.3-2.2,0.5-2.2,1.7l0,0c0,0.8,0.5,1.5,1.3,1.7c0.2,0.1,0.4,0.1,0.6,0.2c2.3,1.2,3.3,6,2.5,12
				c-0.1,0.9-0.3,1.9-0.5,2.9s-1.1,1.6-2.1,1.4c-2.6-0.5-5.4-1-8.3-1.3c-0.5-0.1-0.9-0.3-1.2-0.7c-1.7-2.2-3.5-4.2-5.2-6
				c-0.7-0.7-0.6-2,0.2-2.6c4.2-3.5,8.2-5.5,11.3-6.1c0.8-0.1,1.4-0.9,1.4-1.7v-1.9l0,0c-4.4,0-10,2.7-15.7,7.5
				c-0.7,0.6-1.6,0.6-2.3,0c-4.9-4-9.6-6.6-13.6-7.3c-1.1-0.2-2.1,0.6-2.1,1.7l0,0c0,0.8,0.6,1.6,1.4,1.7c3,0.5,7,2.6,11.3,6
				c0.8,0.7,0.9,1.9,0.2,2.6c-1.8,1.8-3.5,3.8-5.2,6c-0.3,0.4-0.7,0.6-1.2,0.7c-2.9,0.3-5.7,0.7-8.3,1.3c-1,0.2-1.9-0.4-2.1-1.4
				s-0.4-1.9-0.5-2.8c-0.8-6.1,0.2-10.8,2.5-12c0.2-0.1,0.4-0.2,0.7-0.3c0.8-0.2,1.3-0.9,1.3-1.7v-1.9l0,0c-1.4,0-2.7,0.3-3.8,0.9
				c-4.5,2.4-5.7,9.8-3.7,19.1c0.2,0.9-0.3,1.8-1.2,2c-9.6,3.1-15.8,7.7-15.8,12.6s6.2,9.6,15.9,12.6c0.9,0.3,1.4,1.2,1.2,2.1
				c-2,9.4-0.7,16.7,3.8,19.1c1.1,0.6,2.4,0.9,3.8,0.9c4.4,0,10-2.7,15.7-7.5c0.7-0.6,1.6-0.6,2.3,0c5.8,4.8,11.4,7.5,15.7,7.5
				c1.4,0,2.7-0.3,3.8-0.9c4.5-2.4,5.7-9.8,3.7-19.1c-0.2-0.9,0.3-1.8,1.2-2C1165.9,193.5,1172,188.8,1172,184L1172,184z
				 M1138.3,184c0-4-3.5-7.3-7.7-7.3c-4.3,0-7.7,3.2-7.7,7.3c0,4,3.5,7.3,7.7,7.3C1134.8,191.2,1138.3,188,1138.3,184L1138.3,184z
				 M1113.7,149.3L1113.7,149.3L1113.7,149.3L1113.7,149.3z M1150,173.4c-0.3,0.9-0.6,1.8-0.9,2.8c-0.5,1.4-2.4,1.6-3.2,0.3
				c-0.1-0.2-0.3-0.4-0.4-0.6c-0.1-0.1-0.2-0.3-0.2-0.4c-0.8-1.3,0.3-3,1.8-2.7C1148.1,172.9,1149.1,173.1,1150,173.4L1150,173.4z
				 M1142.3,190.3c-1.2,1.9-2.4,3.7-3.6,5.4c-0.3,0.4-0.8,0.7-1.3,0.7c-2.2,0.2-4.5,0.3-6.8,0.3s-4.5-0.1-6.8-0.2
				c-0.5,0-1-0.3-1.3-0.7c-1.2-1.7-2.4-3.5-3.6-5.4c-1.1-1.8-2.2-3.7-3.1-5.5c-0.3-0.5-0.3-1.1,0-1.6c0.9-1.9,2-3.7,3.1-5.5
				c1.2-1.9,2.4-3.7,3.6-5.4c0.3-0.4,0.8-0.7,1.3-0.7c2.2-0.2,4.5-0.3,6.8-0.3s4.5,0.1,6.8,0.2c0.5,0,1,0.3,1.3,0.7
				c1.2,1.7,2.4,3.5,3.6,5.4c1.1,1.8,2.1,3.7,3.1,5.5c0.3,0.5,0.3,1.1,0,1.6C1144.4,186.6,1143.4,188.5,1142.3,190.3L1142.3,190.3z
				 M1147.8,188.2c0.6,1.5,1.2,3,1.7,4.4c0.4,1-0.3,2.1-1.3,2.3c-0.3,0.1-0.7,0.1-1,0.2c-1.5,0.3-2.7-1.4-1.8-2.7
				c0.1-0.1,0.2-0.3,0.3-0.4C1146.3,190.8,1147.1,189.5,1147.8,188.2L1147.8,188.2z M1130.6,205.2c-0.6-0.6-1.3-1.3-1.9-2
				c-1.1-1.1-0.3-3,1.3-3c0.2,0,0.4,0,0.6,0s0.5,0,0.7,0c1.6,0,2.4,1.9,1.3,3C1131.9,203.9,1131.3,204.5,1130.6,205.2L1130.6,205.2z
				 M1118.1,195.8c-1.7-0.2-3.4-0.5-5-0.8c-1.1-0.2-1.7-1.3-1.3-2.3c0.1-0.3,0.2-0.6,0.3-0.9c0.5-1.4,2.4-1.6,3.2-0.3
				c0.1,0.2,0.3,0.4,0.4,0.6C1116.4,193.4,1117.2,194.6,1118.1,195.8L1118.1,195.8z M1130.5,162.7c0.6,0.6,1.3,1.3,1.9,2
				c1.1,1.1,0.3,3-1.3,3c-0.2,0-0.4,0-0.6,0s-0.5,0-0.7,0c-1.6,0-2.4-1.9-1.3-3C1129.3,164,1129.9,163.4,1130.5,162.7L1130.5,162.7z
				 M1118,172.1c-0.8,1.2-1.7,2.5-2.4,3.8c-0.1,0.2-0.3,0.4-0.4,0.6c-0.8,1.3-2.7,1.1-3.2-0.3c-0.1-0.3-0.2-0.6-0.3-0.9
				c-0.4-1,0.3-2.1,1.3-2.3C1114.7,172.6,1116.3,172.3,1118,172.1L1118,172.1z M1102.8,192c-6-2.4-9.8-5.5-9.8-8s3.9-5.7,9.8-8
				c0.9-0.4,1.9-0.7,3-1.1c0.9-0.3,1.9,0.2,2.2,1.1c0.8,2.4,1.8,4.8,2.9,7.3c0.2,0.5,0.2,1,0,1.5c-1.1,2.5-2.1,4.9-2.9,7.2
				c-0.3,0.9-1.3,1.4-2.2,1.1C1104.7,192.7,1103.7,192.4,1102.8,192L1102.8,192z M1111.8,214.7c-2.3-1.2-3.3-6-2.5-12
				c0.1-0.9,0.3-1.9,0.5-2.9s1.1-1.6,2.1-1.4c2.6,0.5,5.4,1,8.3,1.3c0.5,0.1,0.9,0.3,1.2,0.7c1.7,2.2,3.5,4.2,5.2,6
				c0.7,0.7,0.6,2-0.2,2.6c-4.9,4-9.5,6.2-12.7,6.2C1113,215.1,1112.3,215,1111.8,214.7L1111.8,214.7z M1151.9,202.6
				c0.8,6.1-0.2,10.8-2.5,12c-0.5,0.3-1.2,0.4-1.9,0.4c-3.2,0-7.7-2.2-12.7-6.1c-0.8-0.7-0.9-1.9-0.2-2.6c1.8-1.8,3.5-3.8,5.2-6
				c0.3-0.4,0.7-0.6,1.2-0.7c2.9-0.3,5.7-0.7,8.3-1.3c1-0.2,1.9,0.4,2.1,1.4C1151.6,200.7,1151.8,201.7,1151.9,202.6L1151.9,202.6z
				 M1158.4,192c-0.9,0.4-1.9,0.7-3,1.1c-0.9,0.3-1.9-0.2-2.2-1.1c-0.8-2.4-1.8-4.8-2.9-7.3c-0.2-0.5-0.2-1,0-1.5
				c1.1-2.5,2.1-4.9,2.9-7.2c0.3-0.9,1.3-1.4,2.3-1.1s2.1,0.7,3,1.1c6,2.4,9.8,5.5,9.8,8C1168.3,186.5,1164.4,189.6,1158.4,192
				L1158.4,192z">
						<animate attributeName="opacity" values="0;1;0" dur="5s" repeatCount="indefinite" />
					</path>
				</defs>
				<use xlink:href="#el5" transform="translate(250 300)">
					<animateTransform attributeName="transform" type="scale" begin="0s" dur="8s" values="1,1; 2.25,2.25" repeatCount="indefinite" />
					<animate attributeName="opacity" values="0;1;0" dur="4s" repeatCount="indefinite" />
				</use>
				<defs>
					<path opacity="1" id="el4" class="st3" d="M217.1-40.6c0-4.9-6.2-9.6-15.9-12.6c-0.9-0.3-1.4-1.2-1.2-2.1c2-9.4,0.7-16.7-3.8-19.1
				c-0.5-0.3-1-0.5-1.5-0.6c-1.1-0.3-2.2,0.5-2.2,1.7l0,0c0,0.8,0.5,1.5,1.3,1.7c0.2,0.1,0.4,0.1,0.6,0.2c2.3,1.2,3.3,6,2.5,12
				c-0.1,0.9-0.3,1.9-0.5,2.9s-1.1,1.6-2.1,1.4c-2.6-0.5-5.4-1-8.3-1.3c-0.5-0.1-0.9-0.3-1.2-0.7c-1.7-2.2-3.5-4.2-5.2-6
				c-0.7-0.7-0.6-2,0.2-2.6c4.2-3.5,8.2-5.5,11.3-6.1c0.8-0.1,1.4-0.9,1.4-1.7v-1.9l0,0c-4.4,0-10,2.7-15.7,7.5
				c-0.7,0.6-1.6,0.6-2.3,0c-4.9-4-9.6-6.6-13.6-7.3c-1.1-0.2-2.1,0.6-2.1,1.7l0,0c0,0.8,0.6,1.6,1.4,1.7c3,0.5,7,2.6,11.3,6
				c0.8,0.7,0.9,1.9,0.2,2.6c-1.8,1.8-3.5,3.8-5.2,6c-0.3,0.4-0.7,0.6-1.2,0.7c-2.9,0.3-5.7,0.7-8.3,1.3c-1,0.2-1.9-0.4-2.1-1.4
				s-0.4-1.9-0.5-2.8c-0.8-6.1,0.2-10.8,2.5-12c0.2-0.1,0.4-0.2,0.7-0.3c0.8-0.2,1.3-0.9,1.3-1.7v-1.9l0,0c-1.4,0-2.7,0.3-3.8,0.9
				c-4.5,2.4-5.7,9.8-3.7,19.1c0.2,0.9-0.3,1.8-1.2,2c-9.6,3.1-15.8,7.7-15.8,12.6s6.2,9.6,15.9,12.6c0.9,0.3,1.4,1.2,1.2,2.1
				c-2,9.4-0.7,16.7,3.8,19.1c1.1,0.6,2.4,0.9,3.8,0.9c4.4,0,10-2.7,15.7-7.5c0.7-0.6,1.6-0.6,2.3,0c5.8,4.8,11.4,7.5,15.7,7.5
				c1.4,0,2.7-0.3,3.8-0.9c4.5-2.4,5.7-9.8,3.7-19.1c-0.2-0.9,0.3-1.8,1.2-2C210.9-31,217.1-35.7,217.1-40.6L217.1-40.6z
				 M183.3-40.6c0-4-3.5-7.3-7.7-7.3c-4.3,0-7.7,3.2-7.7,7.3c0,4,3.5,7.3,7.7,7.3C179.9-33.3,183.3-36.6,183.3-40.6L183.3-40.6z
				 M158.7-75.3L158.7-75.3L158.7-75.3L158.7-75.3z M195.1-51.2c-0.3,0.9-0.6,1.8-0.9,2.8c-0.5,1.4-2.4,1.6-3.2,0.3
				c-0.1-0.2-0.3-0.4-0.4-0.6c-0.1-0.1-0.2-0.3-0.2-0.4c-0.8-1.3,0.3-3,1.8-2.7C193.2-51.6,194.1-51.4,195.1-51.2L195.1-51.2z
				 M187.3-34.3c-1.2,1.9-2.4,3.7-3.6,5.4c-0.3,0.4-0.8,0.7-1.3,0.7c-2.2,0.2-4.5,0.3-6.8,0.3s-4.5-0.1-6.8-0.2
				c-0.5,0-1-0.3-1.3-0.7c-1.2-1.7-2.4-3.5-3.6-5.4c-1.1-1.8-2.2-3.7-3.1-5.5c-0.3-0.5-0.3-1.1,0-1.6c0.9-1.9,2-3.7,3.1-5.5
				c1.2-1.9,2.4-3.7,3.6-5.4c0.3-0.4,0.8-0.7,1.3-0.7c2.2-0.2,4.5-0.3,6.8-0.3s4.5,0.1,6.8,0.2c0.5,0,1,0.3,1.3,0.7
				c1.2,1.7,2.4,3.5,3.6,5.4c1.1,1.8,2.1,3.7,3.1,5.5c0.3,0.5,0.3,1.1,0,1.6C189.5-37.9,188.5-36.1,187.3-34.3L187.3-34.3z
				 M192.8-36.3c0.6,1.5,1.2,3,1.7,4.4c0.4,1-0.3,2.1-1.3,2.3c-0.3,0.1-0.7,0.1-1,0.2c-1.5,0.3-2.7-1.4-1.8-2.7
				c0.1-0.1,0.2-0.3,0.3-0.4C191.4-33.8,192.1-35.1,192.8-36.3L192.8-36.3z M175.7-19.4c-0.6-0.6-1.3-1.3-1.9-2
				c-1.1-1.1-0.3-3,1.3-3c0.2,0,0.4,0,0.6,0s0.5,0,0.7,0c1.6,0,2.4,1.9,1.3,3C177-20.7,176.3-20,175.7-19.4L175.7-19.4z M163.1-28.7
				c-1.7-0.2-3.4-0.5-5-0.8c-1.1-0.2-1.7-1.3-1.3-2.3c0.1-0.3,0.2-0.6,0.3-0.9c0.5-1.4,2.4-1.6,3.2-0.3c0.1,0.2,0.3,0.4,0.4,0.6
				C161.5-31.2,162.3-29.9,163.1-28.7L163.1-28.7z M175.6-61.8c0.6,0.6,1.3,1.3,1.9,2c1.1,1.1,0.3,3-1.3,3c-0.2,0-0.4,0-0.6,0
				s-0.5,0-0.7,0c-1.6,0-2.4-1.9-1.3-3C174.3-60.5,174.9-61.2,175.6-61.8L175.6-61.8z M163.1-52.5c-0.8,1.2-1.7,2.5-2.4,3.8
				c-0.1,0.2-0.3,0.4-0.4,0.6c-0.8,1.3-2.7,1.1-3.2-0.3c-0.1-0.3-0.2-0.6-0.3-0.9c-0.4-1,0.3-2.1,1.3-2.3
				C159.7-51.9,161.4-52.2,163.1-52.5L163.1-52.5z M147.8-32.6c-6-2.4-9.8-5.5-9.8-8s3.9-5.7,9.8-8c0.9-0.4,1.9-0.7,3-1.1
				c0.9-0.3,1.9,0.2,2.2,1.1c0.8,2.4,1.8,4.8,2.9,7.3c0.2,0.5,0.2,1,0,1.5c-1.1,2.5-2.1,4.9-2.9,7.2c-0.3,0.9-1.3,1.4-2.2,1.1
				C149.8-31.8,148.8-32.2,147.8-32.6L147.8-32.6z M156.9-9.8c-2.3-1.2-3.3-6-2.5-12c0.1-0.9,0.3-1.9,0.5-2.9s1.1-1.6,2.1-1.4
				c2.6,0.5,5.4,1,8.3,1.3c0.5,0.1,0.9,0.3,1.2,0.7c1.7,2.2,3.5,4.2,5.2,6c0.7,0.7,0.6,2-0.2,2.6c-4.9,4-9.5,6.2-12.7,6.2
				C158-9.4,157.4-9.6,156.9-9.8L156.9-9.8z M197-22c0.8,6.1-0.2,10.8-2.5,12c-0.5,0.3-1.2,0.4-1.9,0.4c-3.2,0-7.7-2.2-12.7-6.1
				c-0.8-0.7-0.9-1.9-0.2-2.6c1.8-1.8,3.5-3.8,5.2-6c0.3-0.4,0.7-0.6,1.2-0.7c2.9-0.3,5.7-0.7,8.3-1.3c1-0.2,1.9,0.4,2.1,1.4
				C196.7-23.8,196.8-22.9,197-22L197-22z M203.5-32.6c-0.9,0.4-1.9,0.7-3,1.1c-0.9,0.3-1.9-0.2-2.2-1.1c-0.8-2.4-1.8-4.8-2.9-7.3
				c-0.2-0.5-0.2-1,0-1.5c1.1-2.5,2.1-4.9,2.9-7.2c0.3-0.9,1.3-1.4,2.3-1.1s2.1,0.7,3,1.1c6,2.4,9.8,5.5,9.8,8
				C213.3-38.1,209.4-34.9,203.5-32.6L203.5-32.6z">
						<animate attributeName="opacity" values="0;1;0" dur="5s" repeatCount="indefinite" />
					</path>
				</defs>
				<use xlink:href="#el4" transform="translate(250 300)">
					<animateTransform attributeName="transform" type="scale" begin="0s" dur="10s" values="1,1; 1.75,1.75" repeatCount="indefinite" />
					<animate attributeName="opacity" values="0;1;0" dur="3.5s" repeatCount="indefinite" />
				</use>
				<defs>
					<path opacity="1" id="el3" class="st3" d="M90.3,843c0-4.9-6.2-9.6-15.9-12.6c-0.9-0.3-1.4-1.2-1.2-2.1c2-9.4,0.7-16.7-3.8-19.1
				c-0.5-0.3-1-0.5-1.5-0.6c-1.1-0.3-2.2,0.5-2.2,1.7l0,0c0,0.8,0.5,1.5,1.3,1.7c0.2,0.1,0.4,0.1,0.6,0.2c2.3,1.2,3.3,6,2.5,12
				c-0.1,0.9-0.3,1.9-0.5,2.9s-1.1,1.6-2.1,1.4c-2.6-0.5-5.4-1-8.3-1.3c-0.5-0.1-0.9-0.3-1.2-0.7c-1.7-2.2-3.5-4.2-5.2-6
				c-0.7-0.7-0.6-2,0.2-2.6c4.2-3.5,8.2-5.5,11.3-6.1c0.8-0.1,1.4-0.9,1.4-1.7v-1.9l0,0c-4.4,0-10,2.7-15.7,7.5
				c-0.7,0.6-1.6,0.6-2.3,0c-4.9-4-9.6-6.6-13.6-7.3c-1.1-0.2-2.1,0.6-2.1,1.7l0,0c0,0.8,0.6,1.6,1.4,1.7c3,0.5,7,2.6,11.3,6
				c0.8,0.7,0.9,1.9,0.2,2.6c-1.8,1.8-3.5,3.8-5.2,6c-0.3,0.4-0.7,0.6-1.2,0.7c-2.9,0.3-5.7,0.7-8.3,1.3c-1,0.2-1.9-0.4-2.1-1.4
				c-0.2-1-0.4-1.9-0.5-2.8c-0.8-6.1,0.2-10.8,2.5-12c0.2-0.1,0.4-0.2,0.7-0.3c0.8-0.2,1.3-0.9,1.3-1.7v-1.9l0,0
				c-1.4,0-2.7,0.3-3.8,0.9c-4.5,2.4-5.7,9.8-3.7,19.1c0.2,0.9-0.3,1.8-1.2,2c-9.6,3.1-15.8,7.7-15.8,12.6c0,4.9,6.2,9.6,15.9,12.6
				c0.9,0.3,1.4,1.2,1.2,2.1c-2,9.4-0.7,16.7,3.8,19.1c1.1,0.6,2.4,0.9,3.8,0.9c4.4,0,10-2.7,15.7-7.5c0.7-0.6,1.6-0.6,2.3,0
				c5.8,4.8,11.4,7.5,15.7,7.5c1.4,0,2.7-0.3,3.8-0.9c4.5-2.4,5.7-9.8,3.7-19.1c-0.2-0.9,0.3-1.8,1.2-2
				C84.1,852.5,90.3,847.8,90.3,843L90.3,843z M56.6,843c0-4-3.5-7.3-7.7-7.3c-4.3,0-7.7,3.2-7.7,7.3s3.5,7.3,7.7,7.3
				C53.1,850.2,56.6,847,56.6,843L56.6,843z M31.9,808.3L31.9,808.3L31.9,808.3L31.9,808.3z M68.3,832.4c-0.3,0.9-0.6,1.8-0.9,2.8
				c-0.5,1.4-2.4,1.6-3.2,0.3c-0.1-0.2-0.3-0.4-0.4-0.6c-0.1-0.1-0.2-0.3-0.2-0.4c-0.8-1.3,0.3-3,1.8-2.7
				C66.4,831.9,67.4,832.1,68.3,832.4L68.3,832.4z M60.6,849.3c-1.2,1.9-2.4,3.7-3.6,5.4c-0.3,0.4-0.8,0.7-1.3,0.7
				c-2.2,0.2-4.5,0.3-6.8,0.3s-4.5-0.1-6.8-0.2c-0.5,0-1-0.3-1.3-0.7c-1.2-1.7-2.4-3.5-3.6-5.4c-1.1-1.8-2.2-3.7-3.1-5.5
				c-0.3-0.5-0.3-1.1,0-1.6c0.9-1.9,2-3.7,3.1-5.5c1.2-1.9,2.4-3.7,3.6-5.4c0.3-0.4,0.8-0.7,1.3-0.7c2.2-0.2,4.5-0.3,6.8-0.3
				s4.5,0.1,6.8,0.2c0.5,0,1,0.3,1.3,0.7c1.2,1.7,2.4,3.5,3.6,5.4c1.1,1.8,2.1,3.7,3.1,5.5c0.3,0.5,0.3,1.1,0,1.6
				C62.7,845.6,61.7,847.5,60.6,849.3L60.6,849.3z M66,847.2c0.6,1.5,1.2,3,1.7,4.4c0.4,1-0.3,2.1-1.3,2.3c-0.3,0.1-0.7,0.1-1,0.2
				c-1.5,0.3-2.7-1.4-1.8-2.7c0.1-0.1,0.2-0.3,0.3-0.4C64.6,849.8,65.3,848.5,66,847.2L66,847.2z M48.9,864.2
				c-0.6-0.6-1.3-1.3-1.9-2c-1.1-1.1-0.3-3,1.3-3c0.2,0,0.4,0,0.6,0c0.2,0,0.5,0,0.7,0c1.6,0,2.4,1.9,1.3,3
				C50.2,862.9,49.5,863.5,48.9,864.2L48.9,864.2z M36.3,854.8c-1.7-0.2-3.4-0.5-5-0.8c-1.1-0.2-1.7-1.3-1.3-2.3
				c0.1-0.3,0.2-0.6,0.3-0.9c0.5-1.4,2.4-1.6,3.2-0.3c0.1,0.2,0.3,0.4,0.4,0.6C34.7,852.4,35.5,853.6,36.3,854.8L36.3,854.8z
				 M48.8,821.7c0.6,0.6,1.3,1.3,1.9,2c1.1,1.1,0.3,3-1.3,3c-0.2,0-0.4,0-0.6,0c-0.2,0-0.5,0-0.7,0c-1.6,0-2.4-1.9-1.3-3
				C47.5,823,48.2,822.4,48.8,821.7L48.8,821.7z M36.3,831.1c-0.8,1.2-1.7,2.5-2.4,3.8c-0.1,0.2-0.3,0.4-0.4,0.6
				c-0.8,1.3-2.7,1.1-3.2-0.3c-0.1-0.3-0.2-0.6-0.3-0.9c-0.4-1,0.3-2.1,1.3-2.3C32.9,831.6,34.6,831.3,36.3,831.1L36.3,831.1z
				 M21,851c-6-2.4-9.8-5.5-9.8-8s3.9-5.7,9.8-8c0.9-0.4,1.9-0.7,3-1.1c0.9-0.3,1.9,0.2,2.2,1.1c0.8,2.4,1.8,4.8,2.9,7.3
				c0.2,0.5,0.2,1,0,1.5c-1.1,2.5-2.1,4.9-2.9,7.2c-0.3,0.9-1.3,1.4-2.2,1.1C23,851.7,22,851.4,21,851L21,851z M30.1,873.7
				c-2.3-1.2-3.3-6-2.5-12c0.1-0.9,0.3-1.9,0.5-2.9s1.1-1.6,2.1-1.4c2.6,0.5,5.4,1,8.3,1.3c0.5,0.1,0.9,0.3,1.2,0.7
				c1.7,2.2,3.5,4.2,5.2,6c0.7,0.7,0.6,2-0.2,2.6c-4.9,4-9.5,6.2-12.7,6.2C31.3,874.1,30.6,874,30.1,873.7L30.1,873.7z M70.2,861.6
				c0.8,6.1-0.2,10.8-2.5,12c-0.5,0.3-1.2,0.4-1.9,0.4c-3.2,0-7.7-2.2-12.7-6.1c-0.8-0.7-0.9-1.9-0.2-2.6c1.8-1.8,3.5-3.8,5.2-6
				c0.3-0.4,0.7-0.6,1.2-0.7c2.9-0.3,5.7-0.7,8.3-1.3c1-0.2,1.9,0.4,2.1,1.4C69.9,859.7,70.1,860.7,70.2,861.6L70.2,861.6z
				 M76.7,851c-0.9,0.4-1.9,0.7-3,1.1c-0.9,0.3-1.9-0.2-2.2-1.1c-0.8-2.4-1.8-4.8-2.9-7.3c-0.2-0.5-0.2-1,0-1.5
				c1.1-2.5,2.1-4.9,2.9-7.2c0.3-0.9,1.3-1.4,2.3-1.1c1,0.3,2.1,0.7,3,1.1c6,2.4,9.8,5.5,9.8,8C86.5,845.5,82.7,848.6,76.7,851
				L76.7,851z">
						<animate attributeName="opacity" values="0;1;0" dur="5s" repeatCount="indefinite" />
					</path>
				</defs>
				<use xlink:href="#el3" transform="translate(250 300)">
					<animateTransform attributeName="transform" type="scale" begin="0s" dur="15s" values="1,1; 2,2" repeatCount="indefinite" />
					<animate attributeName="opacity" values="0;1;0" dur="3.40s" repeatCount="indefinite" />
				</use>
				<defs>
					<path opacity="1" id="el2" class="st3" d="M453.4,362.4c0-4.9-6.2-9.6-15.9-12.6c-0.9-0.3-1.4-1.2-1.2-2.1c2-9.4,0.7-16.7-3.8-19.1
				c-0.5-0.3-1-0.5-1.5-0.6c-1.1-0.3-2.2,0.5-2.2,1.7l0,0c0,0.8,0.5,1.5,1.3,1.7c0.2,0.1,0.4,0.1,0.6,0.2c2.3,1.2,3.3,6,2.5,12
				c-0.1,0.9-0.3,1.9-0.5,2.9s-1.1,1.6-2.1,1.4c-2.6-0.5-5.4-1-8.3-1.3c-0.5-0.1-0.9-0.3-1.2-0.7c-1.7-2.2-3.5-4.2-5.2-6
				c-0.7-0.7-0.6-2,0.2-2.6c4.2-3.5,8.2-5.5,11.3-6.1c0.8-0.1,1.4-0.9,1.4-1.7v-1.9l0,0c-4.4,0-10,2.7-15.7,7.5
				c-0.7,0.6-1.6,0.6-2.3,0c-4.9-4-9.6-6.6-13.6-7.3c-1.1-0.2-2.1,0.6-2.1,1.7l0,0c0,0.8,0.6,1.6,1.4,1.7c3,0.5,7,2.6,11.3,6
				c0.8,0.7,0.9,1.9,0.2,2.6c-1.8,1.8-3.5,3.8-5.2,6c-0.3,0.4-0.7,0.6-1.2,0.7c-2.9,0.3-5.7,0.7-8.3,1.3c-1,0.2-1.9-0.4-2.1-1.4
				c-0.2-1-0.4-1.9-0.5-2.8c-0.8-6.1,0.2-10.8,2.5-12c0.2-0.1,0.4-0.2,0.7-0.3c0.8-0.2,1.3-0.9,1.3-1.7v-1.9l0,0
				c-1.4,0-2.7,0.3-3.8,0.9c-4.5,2.4-5.7,9.8-3.7,19.1c0.2,0.9-0.3,1.8-1.2,2c-9.6,3.1-15.8,7.7-15.8,12.6c0,4.9,6.2,9.6,15.9,12.6
				c0.9,0.3,1.4,1.2,1.2,2.1c-2,9.4-0.7,16.7,3.8,19.1c1.1,0.6,2.4,0.9,3.8,0.9c4.4,0,10-2.7,15.7-7.5c0.7-0.6,1.6-0.6,2.3,0
				c5.8,4.8,11.4,7.5,15.7,7.5c1.4,0,2.7-0.3,3.8-0.9c4.5-2.4,5.7-9.8,3.7-19.1c-0.2-0.9,0.3-1.8,1.2-2
				C447.2,372,453.4,367.3,453.4,362.4L453.4,362.4z M419.6,362.4c0-4-3.5-7.3-7.7-7.3c-4.3,0-7.7,3.2-7.7,7.3c0,4,3.5,7.3,7.7,7.3
				C416.2,369.7,419.6,366.4,419.6,362.4L419.6,362.4z M395,327.7L395,327.7L395,327.7L395,327.7z M431.4,351.8
				c-0.3,0.9-0.6,1.8-0.9,2.8c-0.5,1.4-2.4,1.6-3.2,0.3c-0.1-0.2-0.3-0.4-0.4-0.6c-0.1-0.1-0.2-0.3-0.2-0.4c-0.8-1.3,0.3-3,1.8-2.7
				C429.5,351.4,430.4,351.6,431.4,351.8L431.4,351.8z M423.7,368.7c-1.2,1.9-2.4,3.7-3.6,5.4c-0.3,0.4-0.8,0.7-1.3,0.7
				c-2.2,0.2-4.5,0.3-6.8,0.3s-4.5-0.1-6.8-0.2c-0.5,0-1-0.3-1.3-0.7c-1.2-1.7-2.4-3.5-3.6-5.4c-1.1-1.8-2.2-3.7-3.1-5.5
				c-0.3-0.5-0.3-1.1,0-1.6c0.9-1.9,2-3.7,3.1-5.5c1.2-1.9,2.4-3.7,3.6-5.4c0.3-0.4,0.8-0.7,1.3-0.7c2.2-0.2,4.5-0.3,6.8-0.3
				s4.5,0.1,6.8,0.2c0.5,0,1,0.3,1.3,0.7c1.2,1.7,2.4,3.5,3.6,5.4c1.1,1.8,2.1,3.7,3.1,5.5c0.3,0.5,0.3,1.1,0,1.6
				C425.8,365.1,424.8,366.9,423.7,368.7L423.7,368.7z M429.1,366.7c0.6,1.5,1.2,3,1.7,4.4c0.4,1-0.3,2.1-1.3,2.3
				c-0.3,0.1-0.7,0.1-1,0.2c-1.5,0.3-2.7-1.4-1.8-2.7c0.1-0.1,0.2-0.3,0.3-0.4C427.7,369.2,428.4,367.9,429.1,366.7L429.1,366.7z
				 M412,383.6c-0.6-0.6-1.3-1.3-1.9-2c-1.1-1.1-0.3-3,1.3-3c0.2,0,0.4,0,0.6,0c0.2,0,0.5,0,0.7,0c1.6,0,2.4,1.9,1.3,3
				C413.3,382.3,412.6,383,412,383.6L412,383.6z M399.4,374.3c-1.7-0.2-3.4-0.5-5-0.8c-1.1-0.2-1.7-1.3-1.3-2.3
				c0.1-0.3,0.2-0.6,0.3-0.9c0.5-1.4,2.4-1.6,3.2-0.3c0.1,0.2,0.3,0.4,0.4,0.6C397.8,371.8,398.6,373.1,399.4,374.3L399.4,374.3z
				 M411.9,341.2c0.6,0.6,1.3,1.3,1.9,2c1.1,1.1,0.3,3-1.3,3c-0.2,0-0.4,0-0.6,0c-0.2,0-0.5,0-0.7,0c-1.6,0-2.4-1.9-1.3-3
				C410.6,342.5,411.3,341.8,411.9,341.2L411.9,341.2z M399.4,350.6c-0.8,1.2-1.7,2.5-2.4,3.8c-0.1,0.2-0.3,0.4-0.4,0.6
				c-0.8,1.3-2.7,1.1-3.2-0.3c-0.1-0.3-0.2-0.6-0.3-0.9c-0.4-1,0.3-2.1,1.3-2.3C396,351.1,397.7,350.8,399.4,350.6L399.4,350.6z
				 M384.1,370.4c-6-2.4-9.8-5.5-9.8-8s3.9-5.7,9.8-8c0.9-0.4,1.9-0.7,3-1.1c0.9-0.3,1.9,0.2,2.2,1.1c0.8,2.4,1.8,4.8,2.9,7.3
				c0.2,0.5,0.2,1,0,1.5c-1.1,2.5-2.1,4.9-2.9,7.2c-0.3,0.9-1.3,1.4-2.2,1.1C386.1,371.2,385.1,370.8,384.1,370.4L384.1,370.4z
				 M393.2,393.2c-2.3-1.2-3.3-6-2.5-12c0.1-0.9,0.3-1.9,0.5-2.9s1.1-1.6,2.1-1.4c2.6,0.5,5.4,1,8.3,1.3c0.5,0.1,0.9,0.3,1.2,0.7
				c1.7,2.2,3.5,4.2,5.2,6c0.7,0.7,0.6,2-0.2,2.6c-4.9,4-9.5,6.2-12.7,6.2C394.3,393.6,393.7,393.4,393.2,393.2L393.2,393.2z
				 M433.3,381.1c0.8,6.1-0.2,10.8-2.5,12c-0.5,0.3-1.2,0.4-1.9,0.4c-3.2,0-7.7-2.2-12.7-6.1c-0.8-0.7-0.9-1.9-0.2-2.6
				c1.8-1.8,3.5-3.8,5.2-6c0.3-0.4,0.7-0.6,1.2-0.7c2.9-0.3,5.7-0.7,8.3-1.3c1-0.2,1.9,0.4,2.1,1.4
				C433,379.2,433.1,380.1,433.3,381.1L433.3,381.1z M439.8,370.4c-0.9,0.4-1.9,0.7-3,1.1c-0.9,0.3-1.9-0.2-2.2-1.1
				c-0.8-2.4-1.8-4.8-2.9-7.3c-0.2-0.5-0.2-1,0-1.5c1.1-2.5,2.1-4.9,2.9-7.2c0.3-0.9,1.3-1.4,2.3-1.1c1,0.3,2.1,0.7,3,1.1
				c6,2.4,9.8,5.5,9.8,8C449.6,364.9,445.8,368.1,439.8,370.4L439.8,370.4z			">
						<animate attributeName="opacity" values="0;1;0" dur="5s" repeatCount="indefinite" />
					</path>
				</defs>
				<use xlink:href="#el2" transform="translate(250 300)">
					<animateTransform attributeName="transform" type="scale" begin="0s" dur="12s" values="1,1; 2,2" repeatCount="indefinite" />
					<animate attributeName="opacity" values="0;1;0" dur="4.5s" repeatCount="indefinite" />
				</use>
				<g transform="translate(150 200)">
					<defs>
						<path opacity="1" id="el1_1_" class="st3" d="M1066.9,787.7c0-5.2-6.9-10.1-17.4-13.1c2.4-10.1,1.3-18.1-3.4-20.7c-1.1-0.6-2.4-0.9-3.8-0.9
					v3.5c0.8,0,1.4,0.1,1.9,0.4c2.3,1.2,3.3,6,2.5,12c-0.2,1.5-0.5,3.1-0.9,4.7c-3.3-0.8-6.9-1.4-10.7-1.7c-2.3-2.9-4.6-5.6-7-7.9
					c5.5-4.8,10.7-7.5,14.2-7.5V753l0,0c-4.6,0-10.7,3.1-16.9,8.5c-6.2-5.4-12.2-8.5-16.9-8.5v3.5c3.5,0,8.7,2.6,14.2,7.4
					c-2.4,2.3-4.7,5-7,7.9c-3.8,0.4-7.4,1-10.7,1.7c-0.4-1.6-0.7-3.1-0.9-4.6c-0.8-6.1,0.2-10.8,2.5-12c0.5-0.3,1.2-0.4,1.9-0.4V753
					l0,0c-1.4,0-2.7,0.3-3.8,0.9c-4.7,2.6-5.8,10.6-3.4,20.7c-10.5,3-17.4,7.9-17.4,13.1c0,5.2,6.9,10.1,17.4,13.1
					c-2.4,10.1-1.3,18.1,3.4,20.7c1.1,0.6,2.4,0.9,3.8,0.9c4.6,0,10.7-3.1,16.9-8.5c6.2,5.4,12.2,8.5,16.9,8.5
					c1.4,0,2.7-0.3,3.8-0.9c4.7-2.6,5.8-10.6,3.4-20.7C1060,797.8,1066.9,792.9,1066.9,787.7L1066.9,787.7z M1033.1,787.7
					c0-4-3.5-7.3-7.7-7.3c-4.3,0-7.7,3.2-7.7,7.3c0,4,3.5,7.3,7.7,7.3C1029.7,795,1033.1,791.7,1033.1,787.7L1033.1,787.7z
					 M1008.5,753.1L1008.5,753.1L1008.5,753.1L1008.5,753.1z M1044.9,777.1c-0.6,2-1.4,4.2-2.3,6.3c-0.7-1.3-1.4-2.5-2.2-3.8
					c-0.8-1.3-1.6-2.5-2.4-3.7C1040.4,776.2,1042.7,776.6,1044.9,777.1L1044.9,777.1z M1037.1,794.1c-1.3,2.1-2.7,4.2-4.1,6.1
					c-2.5,0.2-5.1,0.3-7.6,0.3s-5.1-0.1-7.6-0.3c-1.4-1.9-2.8-3.9-4.1-6s-2.4-4.2-3.5-6.3c1-2.1,2.2-4.3,3.5-6.3
					c1.3-2.1,2.7-4.2,4.1-6.1c2.5-0.2,5.1-0.3,7.6-0.3s5.1,0.1,7.6,0.3c1.4,1.9,2.8,3.9,4.1,6c1.3,2.1,2.4,4.2,3.5,6.3
					C1039.6,789.8,1038.4,792,1037.1,794.1L1037.1,794.1z M1042.6,792c0.9,2.1,1.7,4.3,2.3,6.3c-2.2,0.5-4.5,0.9-7,1.3
					c0.8-1.2,1.7-2.5,2.4-3.8C1041.2,794.5,1041.9,793.3,1042.6,792L1042.6,792z M1025.5,808.9c-1.6-1.5-3.1-3.2-4.7-5.1
					c1.5,0.1,3.1,0.1,4.6,0.1c1.6,0,3.2,0,4.7-0.1C1028.6,805.7,1027,807.4,1025.5,808.9L1025.5,808.9z M1012.9,799.6
					c-2.4-0.3-4.7-0.7-6.9-1.3c0.6-2,1.4-4.2,2.3-6.3c0.7,1.3,1.4,2.5,2.2,3.8S1012.1,798.4,1012.9,799.6L1012.9,799.6z
					 M1025.4,766.5c1.6,1.5,3.1,3.2,4.7,5.1c-1.5-0.1-3.1-0.1-4.6-0.1c-1.6,0-3.2,0-4.7,0.1C1022.3,769.7,1023.8,768,1025.4,766.5
					L1025.4,766.5z M1012.9,775.9c-0.8,1.2-1.7,2.5-2.4,3.8c-0.8,1.3-1.5,2.5-2.2,3.8c-0.9-2.1-1.7-4.3-2.3-6.3
					C1008.1,776.6,1010.5,776.2,1012.9,775.9L1012.9,775.9z M997.6,795.8c-6-2.4-9.8-5.5-9.8-8s3.9-5.7,9.8-8c1.5-0.6,3-1.1,4.7-1.6
					c1,3.1,2.2,6.4,3.8,9.7c-1.6,3.3-2.8,6.5-3.8,9.6C1000.7,796.9,999.1,796.4,997.6,795.8L997.6,795.8z M1006.7,818.5
					c-2.3-1.2-3.3-6-2.5-12c0.2-1.5,0.5-3.1,0.9-4.7c3.3,0.8,6.9,1.4,10.7,1.7c2.3,2.9,4.6,5.6,7,7.9c-5.5,4.8-10.7,7.5-14.2,7.5
					C1007.8,818.9,1007.2,818.7,1006.7,818.5L1006.7,818.5z M1046.8,806.4c0.8,6.1-0.2,10.8-2.5,12c-0.5,0.3-1.2,0.4-1.9,0.4
					c-3.5,0-8.7-2.6-14.2-7.4c2.4-2.3,4.7-5,7-7.9c3.8-0.4,7.4-1,10.7-1.8C1046.3,803.3,1046.6,804.9,1046.8,806.4L1046.8,806.4z
					 M1053.3,795.8c-1.5,0.6-3,1.1-4.7,1.6c-1-3.1-2.2-6.4-3.8-9.7c1.6-3.3,2.8-6.5,3.8-9.6c1.7,0.5,3.3,1,4.7,1.6
					c6,2.4,9.8,5.5,9.8,8C1063.1,790.2,1059.2,793.4,1053.3,795.8L1053.3,795.8z				">
							<animate attributeName="opacity" values="0;1;0" dur="5s" repeatCount="indefinite" />
						</path>
					</defs>
					<use xlink:href="#el1_1_" transform="translate(150 200)">
						<animateTransform attributeName="transform" type="scale" begin="0s" dur="14s" values="1,1; 2,2" repeatCount="indefinite" />
						<animate attributeName="opacity" values="0;1;0" dur="3.5s" repeatCount="indefinite" />
					</use>
				</g>
			</g>
		</g>
	</g>
</svg>